<svg viewBox="0 0 24 24" fill="none" xmlns="http://www.w3.org/2000/svg"><g id="SVGRepo_bgCarrier" stroke-width="0"></g><g id="SVGRepo_tracerCarrier" stroke-linecap="round" stroke-linejoin="round"></g><g id="SVGRepo_iconCarrier"> <path fill-rule="evenodd" clip-rule="evenodd" d="M2 7.5C2 4.73858 4.23858 2.5 7 2.5H17C19.7614 2.5 22 4.73858 22 7.5V13.5C22 16.2614 19.7614 18.5 17 18.5H15.4142L12.7071 21.2071C12.3166 21.5976 11.6834 21.5976 11.2929 21.2071L8.58579 18.5H7C4.23858 18.5 2 16.2614 2 13.5V7.5ZM7 7.5C6.44772 7.5 6 7.94772 6 8.5C6 9.05228 6.44772 9.5 7 9.5H15C15.5523 9.5 16 9.05228 16 8.5C16 7.94772 15.5523 7.5 15 7.5H7ZM7 11.5C6.44772 11.5 6 11.9477 6 12.5C6 13.0523 6.44772 13.5 7 13.5H17C17.5523 13.5 18 13.0523 18 12.5C18 11.9477 17.5523 11.5 17 11.5H7Z" fill="#ffffff"></path> </g></svg>